<svg width="100" height="100" viewBox="0 0 100 100" fill="none" xmlns="http://www.w3.org/2000/svg">
<path fill-rule="evenodd" clip-rule="evenodd" d="M67.0121 79.6941C77.7421 73.7149 85 62.2547 85 49.0994C85 29.7695 69.33 14.0994 50 14.0994C30.67 14.0994 15 29.7695 15 49.0994C15 68.4294 30.67 84.0994 50 84.0994C52.1175 84.0994 54.1912 83.9114 56.2051 83.5511C56.2082 80.1882 58.9353 77.4631 62.2988 77.4631C64.1982 77.4631 65.8946 78.332 67.0121 79.6941ZM68.3923 83.4988C80.6576 76.9272 89 63.9876 89 49.0994C89 27.5603 71.5391 10.0994 50 10.0994C28.4609 10.0994 11 27.5603 11 49.0994C11 70.6385 28.4609 88.0994 50 88.0994C52.5814 88.0994 55.1042 87.8486 57.5454 87.3701C58.6622 88.7605 60.3766 89.6506 62.2988 89.6506C65.6643 89.6506 68.3926 86.9223 68.3926 83.5568C68.3926 83.5375 68.3925 83.5182 68.3923 83.4988ZM70.375 49.0994C70.375 60.3522 61.2528 69.4744 50 69.4744C42.6596 69.4744 36.2259 65.5928 32.6394 59.7702C33.9089 58.6534 34.71 57.0169 34.71 55.1932C34.71 52.1714 32.5105 49.6633 29.6252 49.1826L29.625 49.0994C29.625 37.8466 38.7472 28.7244 50 28.7244C51.84 28.7244 53.623 28.9683 55.3185 29.4256C55.3183 29.4466 55.3182 29.4676 55.3182 29.4886C55.3182 32.8541 58.0464 35.5824 61.4119 35.5824C62.5279 35.5824 63.5739 35.2824 64.4735 34.7586C68.1217 38.4404 70.375 43.5068 70.375 49.0994ZM50 73.4744C40.9754 73.4744 33.0964 68.5701 28.8826 61.2812C28.7943 61.285 28.7055 61.2869 28.6162 61.2869C25.2507 61.2869 22.5225 58.5587 22.5225 55.1932C22.5225 52.9098 23.7784 50.9197 25.6371 49.876C25.6291 49.6181 25.625 49.3593 25.625 49.0994C25.625 35.6375 36.5381 24.7244 50 24.7244C52.3158 24.7244 54.5561 25.0474 56.6784 25.6507C57.7957 24.2744 59.5011 23.3949 61.4119 23.3949C64.7774 23.3949 67.5057 26.1231 67.5057 29.4886C67.5057 30.2745 67.3569 31.0256 67.086 31.7153C71.5849 36.1375 74.375 42.2926 74.375 49.0994C74.375 62.5614 63.4619 73.4744 50 73.4744ZM55.75 49.0994C55.75 52.2751 53.1756 54.8494 50 54.8494C46.8244 54.8494 44.25 52.2751 44.25 49.0994C44.25 45.9238 46.8244 43.3494 50 43.3494C53.1756 43.3494 55.75 45.9238 55.75 49.0994ZM59.75 49.0994C59.75 54.4842 55.3848 58.8494 50 58.8494C44.6152 58.8494 40.25 54.4842 40.25 49.0994C40.25 43.7146 44.6152 39.3494 50 39.3494C55.3848 39.3494 59.75 43.7146 59.75 49.0994Z" fill="url(#paint0_linear_102_1235)"/>
<defs>
<linearGradient id="paint0_linear_102_1235" x1="11" y1="10.0994" x2="88.9737" y2="85.7629" gradientUnits="userSpaceOnUse">
<stop stop-color="#0083FD"/>
<stop offset="1" stop-color="#7FE7FF"/>
</linearGradient>
</defs>
</svg>
