<svg width="100" height="100" viewBox="0 0 100 100" fill="none" xmlns="http://www.w3.org/2000/svg">
<path fill-rule="evenodd" clip-rule="evenodd" d="M78.4076 24.8901C78.7932 25.9252 79.9449 26.4517 80.9799 26.0661C82.015 25.6804 82.5415 24.5287 82.1559 23.4937C80.6919 19.5641 77.4446 14.2144 72.3278 11.0726C67.0287 7.81892 60.011 7.11764 51.6586 12.1291C50.7114 12.6974 50.4043 13.9259 50.9726 14.8731C51.5409 15.8202 52.7694 16.1274 53.7166 15.5591C60.8858 11.2575 66.2999 12.0653 70.2348 14.4813C74.352 17.0093 77.1409 21.49 78.4076 24.8901ZM71.2482 29.437C70.2131 29.8226 69.0614 29.2961 68.6758 28.261C68.1572 26.8689 67.0218 25.0811 65.4342 24.1063C64.0289 23.2434 62.0204 22.849 59.1032 24.5994C58.156 25.1677 56.9275 24.8605 56.3592 23.9134C55.7909 22.9662 56.098 21.7377 57.0452 21.1694C61.1456 18.7091 64.7577 18.997 67.5272 20.6975C70.1145 22.2862 71.7082 24.9429 72.4242 26.8646C72.8098 27.8997 72.2833 29.0513 71.2482 29.437ZM65.6065 54.1127C65.6317 53.273 65.6918 52.414 65.7968 51.5595C66.1781 48.4556 67.2188 44.8536 69.9373 42.8015C70.05 42.7164 70.1715 42.6434 70.2996 42.5839C71.3346 42.1031 72.432 41.861 73.5347 42.0374C74.6624 42.2179 75.5701 42.8003 76.2612 43.5636C77.5459 44.9827 78.2041 47.1576 78.5922 49.3386C79.3894 53.8179 79.3014 59.996 79.1313 65.4116C78.9427 71.4112 78.5521 78.5664 74.2706 83.9184C72.9792 85.5328 71.5549 86.8541 70.0614 87.9319C65.1776 91.4565 59.5053 91.7399 54.1511 90.3484C48.827 88.9647 43.6597 85.8978 39.4448 82.4439C33.3635 77.4604 27.2246 71.9059 22.8189 67.2774C20.6267 64.9744 18.8015 62.8364 17.6311 61.0758C17.0539 60.2076 16.5627 59.3238 16.2991 58.4886C16.0633 57.7417 15.8281 56.4355 16.7023 55.3358C17.3981 54.4603 18.3127 53.9194 19.3508 53.7206C20.1392 53.5696 20.9266 53.6285 21.6631 53.7914C20.1413 52.1727 18.7706 50.6085 17.7832 49.2387C17.1302 48.333 16.5462 47.38 16.2399 46.4676C15.9761 45.6819 15.7486 44.3545 16.6137 43.2539C17.2007 42.2508 18.1422 41.6343 19.2694 41.4724C20.3384 41.3189 21.4242 41.5927 22.3664 41.958C23.3271 42.3304 24.3753 42.8944 25.4738 43.5843C23.6129 41.4704 21.9584 39.4503 20.822 37.7044C20.1214 36.6282 19.5228 35.5156 19.2459 34.4594C18.9711 33.4113 18.91 31.9371 20.0342 30.8056C20.6982 30.1373 21.5208 29.6735 22.4953 29.5168C23.4344 29.3657 24.3608 29.5243 25.226 29.8255C26.8972 30.4072 28.7776 31.6823 30.902 33.3767C31.3708 33.7507 31.8622 34.1541 32.3772 34.5864C31.7369 33.2091 31.3505 31.8712 31.4431 30.6602C31.5158 29.7082 31.8903 28.7832 32.6765 28.0849C33.419 27.4256 34.3417 27.1352 35.2182 27.0249C35.9042 26.9386 36.5521 27.0906 37.0569 27.2649C37.5865 27.4477 38.1281 27.7155 38.6608 28.0234C39.7263 28.6393 40.9419 29.5248 42.2387 30.5746C44.842 32.6822 47.9765 35.6201 51.229 38.8615C56.1189 43.7347 61.3585 49.3777 65.6065 54.1127ZM35.6237 31.0071C35.6514 31.014 35.6935 31.0258 35.7516 31.0459C35.9568 31.1167 36.2565 31.2538 36.659 31.4865C37.464 31.9518 38.4949 32.6903 39.7218 33.6835C42.1657 35.6621 45.1866 38.4869 48.4054 41.6947C54.8327 48.1001 61.9026 55.8854 66.4496 61.1005C67.0373 61.7746 68.0011 61.9766 68.81 61.5952C69.6189 61.2138 70.0763 60.3417 69.9302 59.4594C69.6359 57.6824 69.4286 54.8008 69.7669 52.0473C70.1037 49.3063 70.9177 47.1998 72.1815 46.1268C72.5912 45.9647 72.814 45.973 72.9026 45.9872C72.9793 45.9994 73.1039 46.0361 73.2958 46.2482C73.7771 46.7798 74.2877 47.9807 74.6541 50.0394C75.366 54.0395 75.3057 59.7971 75.1332 65.2859C74.9391 71.466 74.4778 77.2561 71.1471 81.4197C70.0897 82.7415 68.9314 83.8146 67.7206 84.6884C64.0738 87.3202 59.7253 87.6642 55.1572 86.477C50.559 85.282 45.9024 82.5641 41.9802 79.35C35.9824 74.435 29.9749 68.9936 25.7162 64.5196C23.5761 62.2713 21.9395 60.3314 20.9622 58.8613C20.6196 58.346 20.3924 57.9388 20.2523 57.634C20.4262 57.6288 20.693 57.656 21.077 57.7689C22.1448 58.0828 23.551 58.8825 25.2312 60.0717C26.8335 61.2057 28.5202 62.5721 30.2088 63.9401L30.3506 64.055C32.0525 65.4336 33.778 66.8275 35.3003 67.8493C36.1146 68.3959 37.2053 68.2713 37.8754 67.5551C38.5455 66.8389 38.5973 65.7424 37.9977 64.9661C36.7937 63.4073 34.8535 61.3969 32.758 59.2962C31.9764 58.5128 31.1706 57.7141 30.3581 56.9089C28.9441 55.5075 27.5101 54.0864 26.1499 52.6913C24.0043 50.4907 22.1672 48.48 21.0279 46.8996C20.5766 46.2736 20.2936 45.794 20.1368 45.4538C20.3132 45.4849 20.5695 45.5514 20.9206 45.6875C22.2694 46.2104 24.1412 47.4037 26.4184 49.1179C29.109 51.1433 32.033 53.6278 34.991 56.1413C37.074 57.9112 39.1739 59.6955 41.2211 61.3439C41.9987 61.9701 43.119 61.9269 43.846 61.2427C44.5731 60.5585 44.6842 59.4429 44.1064 58.6287C41.716 55.2602 37.7509 51.0032 33.9432 46.9153C32.5326 45.4007 31.1435 43.9094 29.8641 42.495C27.4351 39.8098 25.4026 37.4092 24.1743 35.5223C23.5617 34.5812 23.2401 33.9027 23.1212 33.4676L23.1305 33.466C23.2192 33.4518 23.4524 33.4435 23.911 33.6031C24.8875 33.9431 26.3118 34.832 28.4078 36.5038C31.1539 38.6942 34.6769 41.9098 39.3428 46.1688L39.3428 46.1688C41.7452 48.3617 44.4505 50.8311 47.5089 53.5795C48.3077 54.2974 49.5308 54.2562 50.2795 53.4863C51.0282 52.7164 51.0353 51.4927 50.2955 50.7142C43.2939 43.3468 38.8216 37.8834 36.7204 34.258C35.6968 32.4917 35.4351 31.4879 35.4291 31.0494C35.4767 31.0357 35.5405 31.0207 35.6237 31.0071ZM23.0736 33.2204C23.0738 33.2206 23.0741 33.2251 23.0738 33.2332C23.0732 33.2243 23.0733 33.2202 23.0736 33.2204ZM19.9924 45.0513C19.9927 45.0515 19.9941 45.0578 19.9955 45.0692C19.9927 45.0568 19.9921 45.051 19.9924 45.0513ZM20.0751 57.1268C20.076 57.1274 20.0786 57.1396 20.08 57.1616C20.0749 57.1372 20.0742 57.1262 20.0751 57.1268Z" fill="url(#paint0_linear_102_1272)"/>
<defs>
<linearGradient id="paint0_linear_102_1272" x1="16.5479" y1="5.37217" x2="97.6895" y2="66.7007" gradientUnits="userSpaceOnUse">
<stop stop-color="#0083FD"/>
<stop offset="1" stop-color="#7FE7FF"/>
</linearGradient>
</defs>
</svg>
