<svg width="100" height="100" viewBox="0 0 100 100" fill="none" xmlns="http://www.w3.org/2000/svg">
<path fill-rule="evenodd" clip-rule="evenodd" d="M74.2977 28.0369L62.2749 32.6931C60.0491 33.5551 57.5241 33.0159 55.8446 31.3198L46.7729 22.1585L47.486 35.0316C47.618 37.4149 46.3248 39.6497 44.1928 40.7228L32.6765 46.5196L45.14 49.8194C47.4474 50.4303 49.1732 52.3508 49.535 54.7101L51.4893 67.454L58.479 56.6203C59.7731 54.6146 62.1329 53.5667 64.4885 53.9517L77.2126 56.0311L69.069 46.0356C67.5614 44.1852 67.294 41.6171 68.3881 39.4957L74.2977 28.0369ZM80.2693 25.1846C81.113 23.5488 79.4858 21.7382 77.7695 22.4029L60.8304 28.9631C60.0884 29.2504 59.2467 29.0707 58.6869 28.5053L45.9055 15.5977C44.6105 14.2899 42.3856 15.2779 42.4874 17.1156L43.4921 35.2529C43.5361 36.0473 43.105 36.7922 42.3944 37.1499L26.1688 45.3171C24.5248 46.1446 24.7769 48.5659 26.5561 49.0369L44.1162 53.6862C44.8853 53.8898 45.4606 54.53 45.5812 55.3164L48.3347 73.2716C48.6137 75.0909 50.9943 75.5993 51.9921 74.0528L61.8402 58.7888C62.2715 58.1203 63.0581 57.771 63.8433 57.8993L81.7706 60.8291C83.5871 61.1259 84.8063 59.0189 83.6438 57.592L72.1701 43.5091C71.6676 42.8923 71.5784 42.0363 71.9431 41.3291L80.2693 25.1846ZM22.4856 85.1848C21.6098 84.5117 21.4455 83.2561 22.1185 82.3803L34.4787 66.298C35.1518 65.4222 36.4075 65.2578 37.2832 65.9309C38.159 66.604 38.3234 67.8597 37.6503 68.7355L25.2901 84.8178C24.617 85.6936 23.3614 85.8579 22.4856 85.1848ZM16.8918 66.6269C15.9724 67.239 15.7233 68.4806 16.3354 69.4001C16.9476 70.3195 18.1891 70.5686 19.1086 69.9565L28.9123 63.4295C29.8317 62.8173 30.0808 61.5758 29.4687 60.6563C28.8566 59.7369 27.615 59.4878 26.6956 60.0999L16.8918 66.6269Z" fill="url(#paint0_linear_102_1279)"/>
<defs>
<linearGradient id="paint0_linear_102_1279" x1="4.75925" y1="11.7286" x2="82.3147" y2="87.6073" gradientUnits="userSpaceOnUse">
<stop stop-color="#0083FD"/>
<stop offset="1" stop-color="#7FE7FF"/>
</linearGradient>
</defs>
</svg>
