<svg width="100" height="100" viewBox="0 0 100 100" fill="none" xmlns="http://www.w3.org/2000/svg">
<path fill-rule="evenodd" clip-rule="evenodd" d="M26.2566 19.889C25.6425 19.8847 25.039 20.0527 24.5139 20.3748C23.99 20.6961 23.5647 21.1584 23.2868 21.7104L23.2849 21.7141L18.2096 31.9445H80.7895L75.7142 21.7141L75.7125 21.7107C75.4345 21.1585 75.0092 20.6962 74.4852 20.3748C73.9602 20.0527 73.3566 19.8847 72.7425 19.889L72.7285 19.889H26.2706H26.2566L26.2566 19.889ZM81.9718 35.9445H17.0273V44.5051C17.0273 44.683 17.0978 44.852 17.2209 44.9755C17.3437 45.0988 17.5086 45.1667 17.6791 45.1667H81.3201C81.4905 45.1667 81.6555 45.0988 81.7783 44.9755C81.9013 44.852 81.9718 44.683 81.9718 44.5051V35.9445ZM13.0273 33.9445V33.8587C13.0273 33.5503 13.0987 33.2461 13.2357 32.9698L19.7059 19.928L19.7101 19.9195L19.7101 19.9195C20.3217 18.7012 21.2608 17.6777 22.4225 16.9651C23.5821 16.2538 24.917 15.881 26.277 15.889H72.7221C74.0821 15.881 75.417 16.2538 76.5766 16.9651C77.7383 17.6777 78.6775 18.7012 79.289 19.9195L79.2933 19.928L85.7634 32.9698C85.9005 33.2461 85.9718 33.5503 85.9718 33.8587V33.9445V44.5051C85.9718 45.739 85.4835 46.9239 84.612 47.7987C83.7402 48.6737 82.5562 49.1667 81.3201 49.1667H17.6791C16.4429 49.1667 15.259 48.6737 14.3872 47.7987C13.5156 46.9239 13.0273 45.739 13.0273 44.5051V33.9445ZM20.6943 53.6667C21.7989 53.6667 22.6943 54.5621 22.6943 55.6667V61.2222H52.6943V55.6667C52.6943 54.5621 53.5898 53.6667 54.6943 53.6667C55.7989 53.6667 56.6943 54.5621 56.6943 55.6667V63.2222V80.1111H76.5883C76.7679 80.1111 76.9376 80.0401 77.0607 79.9178C77.1833 79.7959 77.2499 79.6334 77.2499 79.4667V55.6667C77.2499 54.5621 78.1453 53.6667 79.2499 53.6667C80.3545 53.6667 81.2499 54.5621 81.2499 55.6667V79.4667C81.2499 80.7027 80.7556 81.8854 79.88 82.7554C79.0047 83.6249 77.8204 84.1111 76.5883 84.1111H54.6943H23.356C22.1238 84.1111 20.9395 83.6249 20.0643 82.7554C19.1886 81.8854 18.6943 80.7027 18.6943 79.4667V63.2222V55.6667C18.6943 54.5621 19.5898 53.6667 20.6943 53.6667ZM22.6943 79.4667V65.2222H52.6943V80.1111H23.356C23.1763 80.1111 23.0066 80.0401 22.8835 79.9178C22.7609 79.7959 22.6943 79.6334 22.6943 79.4667Z" fill="url(#paint0_linear_102_1253)"/>
<defs>
<linearGradient id="paint0_linear_102_1253" x1="13.6285" y1="13.3064" x2="83.2648" y2="83.4609" gradientUnits="userSpaceOnUse">
<stop stop-color="#0083FD"/>
<stop offset="1" stop-color="#7FE7FF"/>
</linearGradient>
</defs>
</svg>
