<svg width="100" height="100" viewBox="0 0 100 100" fill="none" xmlns="http://www.w3.org/2000/svg">
<path fill-rule="evenodd" clip-rule="evenodd" d="M63.052 21.474C56.7395 17.5701 49.3936 15.6771 41.9849 16.045C35.4171 16.0511 29.3879 17.2393 24.9227 19.2326C22.6868 20.2307 20.7555 21.4699 19.3561 22.9446C18.1032 24.2648 17.2153 25.8467 17.0341 27.6301C17.0117 27.75 17 27.8736 17 28V28.305V43V58.4C17 60.6376 18.1656 62.5501 19.8002 64.0656C21.4326 65.5791 23.6788 66.8453 26.2694 67.8618C27.2977 68.2653 28.4583 67.7588 28.8618 66.7306C29.2653 65.7023 28.7588 64.5417 27.7306 64.1382C25.4145 63.2294 23.6607 62.1902 22.5198 61.1324C21.381 60.0766 21 59.1517 21 58.4V49.9217C22.4591 51.0493 24.2449 52.0259 26.2365 52.8485C27.2574 53.2702 28.4268 52.7844 28.8485 51.7635C29.2702 50.7426 28.7844 49.5732 27.7635 49.1515C25.454 48.1975 23.7012 47.1055 22.5569 45.9887C21.4188 44.878 21 43.8691 21 43V35.1223C22.3829 36.1701 24.0566 37.0793 25.9137 37.8479C26.9342 38.2704 28.1041 37.7855 28.5265 36.7649C28.949 35.7443 28.4641 34.5745 27.4435 34.1521C25.2328 33.237 23.5604 32.1915 22.4716 31.1267C21.3893 30.068 21 29.1157 21 28.305C21 27.5441 21.3388 26.6662 22.2576 25.6979C23.1858 24.7198 24.6235 23.7467 26.5532 22.8852C30.4078 21.1644 35.8769 20.045 42.0357 20.045C42.0697 20.045 42.1037 20.0442 42.1377 20.0424C48.7515 19.7047 55.3118 21.3902 60.948 24.876C61.8874 25.457 63.12 25.1664 63.701 24.227C64.282 23.2876 63.9914 22.055 63.052 21.474ZM36 41.5C36 39.8625 37.5431 37.7318 41.5671 35.8948C45.4137 34.1387 50.8681 33 57 33C63.1319 33 68.5863 34.1387 72.4329 35.8948C76.4569 37.7318 78 39.8625 78 41.5C78 43.1376 76.4569 45.2682 72.4329 47.1053C68.5863 48.8613 63.1319 50 57 50C50.8681 50 45.4137 48.8613 41.5671 47.1053C37.5431 45.2682 36 43.1376 36 41.5ZM32.0797 40.439C32.0278 40.617 32 40.8053 32 41V41.5V57V71.75C32 73.8057 32.94 75.6189 34.3434 77.1037C35.7369 78.5781 37.6614 79.817 39.8916 80.8147C44.3568 82.8123 50.3976 84 57 84C63.6024 84 69.6432 82.8123 74.1084 80.8147C76.3386 79.817 78.2631 78.5781 79.6566 77.1037C81.06 75.6189 82 73.8057 82 71.75V57V41.5V41C82 40.8053 81.9722 40.617 81.9203 40.4391C81.3683 36.8053 78.0208 34.0487 74.094 32.256C69.6162 30.2118 63.5706 29 57 29C50.4294 29 44.3838 30.2118 39.906 32.256C35.9792 34.0487 32.6318 36.8053 32.0797 40.439ZM36 71.75V63.6938C37.1323 64.5275 38.456 65.2617 39.9083 65.8955C44.3688 67.8423 50.4034 69 57 69C63.5966 69 69.6312 67.8423 74.0917 65.8955C75.544 65.2617 76.8677 64.5275 78 63.6938V71.75C78 72.5131 77.6622 73.3905 76.7496 74.3561C75.8272 75.332 74.3975 76.3034 72.4749 77.1634C68.6346 78.8815 63.1754 80 57 80C50.8246 80 45.3654 78.8815 41.5251 77.1634C39.6025 76.3034 38.1728 75.332 37.2504 74.3561C36.3378 73.3905 36 72.5131 36 71.75ZM76.7667 59.4912C77.6777 58.5508 78 57.7115 78 57V48.442C76.8414 49.3312 75.5051 50.0998 74.094 50.744C69.6162 52.7882 63.5706 54 57 54C50.4294 54 44.3838 52.7882 39.906 50.744C38.4949 50.0998 37.1586 49.3312 36 48.442V57C36 57.7115 36.3223 58.5508 37.2333 59.4912C38.1533 60.4408 39.5828 61.389 41.5084 62.2295C45.3534 63.9077 50.8188 65 57 65C63.1812 65 68.6466 63.9077 72.4916 62.2295C74.4172 61.389 75.8467 60.4408 76.7667 59.4912Z" fill="url(#paint0_linear_102_1262)"/>
<defs>
<linearGradient id="paint0_linear_102_1262" x1="0.44557" y1="10.7564" x2="77.3534" y2="88.7633" gradientUnits="userSpaceOnUse">
<stop stop-color="#0083FD"/>
<stop offset="1" stop-color="#7FE7FF"/>
</linearGradient>
</defs>
</svg>
