<svg width="38" height="24" viewBox="0 0 38 24" fill="none" xmlns="http://www.w3.org/2000/svg">
<g clip-path="url(#clip0_102_1359)">
<path d="M34.597 0H3.40308C3.27316 0 3.14301 0 3.01333 0.000747416C2.9037 0.00151748 2.79433 0.00271788 2.68496 0.00566224C2.44643 0.0120266 2.20585 0.0259104 1.97031 0.0676751C1.73099 0.110165 1.5083 0.17947 1.29105 0.288593C1.07748 0.395745 0.881945 0.535897 0.712496 0.703137C0.542973 0.870377 0.40091 1.06296 0.29232 1.27389C0.181686 1.48822 0.11139 1.70798 0.0686192 1.94426C0.0260577 2.1767 0.0118904 2.41399 0.00546226 2.64907C0.00252366 2.75697 0.00126328 2.86487 0.000549292 2.97274C-0.000208315 3.10096 4.42204e-05 3.22909 4.42204e-05 3.35753V20.6427C4.42204e-05 20.7712 -0.000208315 20.8991 0.000549292 21.0275C0.00126328 21.1354 0.00252366 21.2433 0.00546226 21.3512C0.0118904 21.5861 0.0260577 21.8234 0.0686192 22.0557C0.11139 22.2921 0.181686 22.5118 0.29232 22.7261C0.40091 22.9371 0.542973 23.1299 0.712496 23.2969C0.881945 23.4644 1.07748 23.6045 1.29105 23.7114C1.5083 23.8208 1.73099 23.8902 1.97031 23.9326C2.20585 23.9741 2.44643 23.9882 2.68496 23.9946C2.79433 23.9971 2.9037 23.9985 3.01333 23.999C3.14301 24 3.27316 24 3.40308 24H34.597C34.7267 24 34.8568 24 34.9865 23.999C35.0958 23.9985 35.2052 23.9971 35.3151 23.9946C35.5531 23.9882 35.7936 23.9741 36.0298 23.9326C36.2688 23.8902 36.4915 23.8208 36.7088 23.7114C36.9226 23.6045 37.1175 23.4644 37.2873 23.2969C37.4566 23.1299 37.5986 22.9371 37.7075 22.7261C37.8184 22.5118 37.8886 22.2921 37.9312 22.0557C37.9738 21.8234 37.9876 21.5861 37.994 21.3512C37.997 21.2433 37.9985 21.1354 37.999 21.0275C38 20.8991 38 20.7712 38 20.6427V3.35753C38 3.22909 38 3.10096 37.999 2.97274C37.9985 2.86487 37.997 2.75697 37.994 2.64907C37.9876 2.41399 37.9738 2.1767 37.9312 1.94426C37.8886 1.70798 37.8184 1.48822 37.7075 1.27389C37.5986 1.06296 37.4566 0.870377 37.2873 0.703137C37.1175 0.535897 36.9226 0.395745 36.7088 0.288593C36.4915 0.17947 36.2688 0.110165 36.0298 0.0676751C35.7936 0.0259104 35.5531 0.0120266 35.3151 0.00566224C35.2052 0.00271788 35.0958 0.00151748 34.9865 0.000747416C34.8568 0 34.7267 0 34.597 0Z" fill="black"/>
<path d="M34.5966 0.799805L34.9804 0.800529C35.0843 0.801254 35.1883 0.802364 35.2928 0.805172C35.4746 0.810019 35.6873 0.819736 35.8856 0.854796C36.0579 0.885418 36.2025 0.931984 36.3412 1.00165C36.4781 1.0703 36.6036 1.16026 36.7131 1.26819C36.8231 1.37683 36.9144 1.50081 36.9849 1.63741C37.0551 1.77319 37.1021 1.91511 37.1329 2.08638C37.1684 2.27985 37.1782 2.49026 37.1831 2.67075C37.1859 2.77262 37.1873 2.8745 37.1878 2.97879C37.1888 3.10493 37.1888 3.23099 37.1888 3.35737V20.6426C37.1888 20.7689 37.1888 20.8948 37.1878 21.0236C37.1873 21.1255 37.1859 21.2273 37.1831 21.3294C37.1782 21.5096 37.1684 21.7199 37.1325 21.9157C37.1021 22.0846 37.0552 22.2265 36.9846 22.363C36.9143 22.4992 36.8231 22.6231 36.7136 22.731C36.6034 22.8398 36.4784 22.9295 36.3398 22.9987C36.2021 23.0681 36.0578 23.1146 35.8872 23.1449C35.6849 23.1805 35.4633 23.1902 35.2964 23.1947C35.1914 23.197 35.0869 23.1984 34.9798 23.1989C34.8523 23.1999 34.7242 23.1999 34.5966 23.1999H3.40274C3.40104 23.1999 3.39938 23.1999 3.39766 23.1999C3.27153 23.1999 3.14515 23.1999 3.01672 23.1989C2.91201 23.1984 2.80753 23.1971 2.70652 23.1948C2.5358 23.1902 2.31405 23.1805 2.11343 23.1451C1.94131 23.1146 1.79702 23.0681 1.65753 22.9978C1.52027 22.9292 1.39531 22.8396 1.28508 22.7306C1.17571 22.6229 1.08482 22.4995 1.01455 22.363C0.944207 22.2267 0.897144 22.0843 0.866199 21.9134C0.830428 21.718 0.820602 21.5085 0.815692 21.3296C0.812889 21.2271 0.811718 21.1246 0.811052 21.0227L0.810547 20.722L0.81057 20.6426V3.35737L0.810547 3.27796L0.811029 2.97784C0.811718 2.87536 0.812889 2.77289 0.815692 2.6705C0.820602 2.49132 0.830428 2.28177 0.866495 2.08477C0.897167 1.91538 0.944207 1.77301 1.01492 1.636C1.08464 1.50059 1.17569 1.37697 1.28564 1.26853C1.39515 1.16044 1.52052 1.0706 1.65865 1.00129C1.79665 0.931961 1.94122 0.885418 2.11333 0.854864C2.31164 0.819713 2.52448 0.810019 2.70677 0.80515C2.81068 0.802364 2.91458 0.801254 3.01771 0.800552L3.40274 0.799805H34.5966" fill="white"/>
<path d="M10.3732 8.07201C10.6985 7.67053 10.9193 7.13144 10.8611 6.58057C10.3848 6.60393 9.80357 6.89057 9.46707 7.29237C9.16493 7.63645 8.89751 8.19811 8.96723 8.72589C9.50189 8.77164 10.0361 8.46224 10.3732 8.07201Z" fill="black"/>
<path d="M10.8553 8.82874C10.0789 8.78311 9.41869 9.26349 9.04789 9.26349C8.67689 9.26349 8.10907 8.85173 7.49494 8.86283C6.6956 8.87441 5.95391 9.32029 5.54828 10.0294C4.71396 11.4481 5.3281 13.5524 6.13943 14.7078C6.53342 15.2794 7.00826 15.9088 7.63392 15.8862C8.22507 15.8633 8.45678 15.5086 9.17535 15.5086C9.89339 15.5086 10.1021 15.8862 10.7279 15.8748C11.3768 15.8633 11.7825 15.3029 12.1765 14.7307C12.6285 14.0791 12.8135 13.4499 12.8252 13.4154C12.8135 13.4039 11.5738 12.9347 11.5623 11.5279C11.5506 10.3499 12.5356 9.78961 12.582 9.75486C12.0257 8.94325 11.1566 8.85173 10.8553 8.82874Z" fill="black"/>
<path d="M17.6161 7.23487C19.3037 7.23487 20.4789 8.38251 20.4789 10.0534C20.4789 11.7302 19.2796 12.8838 17.5738 12.8838H15.7053V15.8153H14.3553V7.23486H17.6161V7.23487ZM15.7053 11.7659H17.2543C18.4297 11.7659 19.0987 11.1416 19.0987 10.0594C19.0987 8.9772 18.4297 8.35876 17.2604 8.35876H15.7053V11.7659V11.7659Z" fill="black"/>
<path d="M20.8316 14.0373C20.8316 12.9431 21.6815 12.2713 23.1884 12.188L24.9242 12.0869V11.6053C24.9242 10.9096 24.448 10.4934 23.6525 10.4934C22.8989 10.4934 22.4288 10.8501 22.3144 11.4091H21.0848C21.1572 10.2792 22.1335 9.44678 23.7007 9.44678C25.2376 9.44678 26.22 10.2495 26.22 11.5042V15.8152H24.9723V14.7865H24.9423C24.5747 15.4823 23.773 15.9222 22.9413 15.9222C21.6996 15.9222 20.8316 15.1611 20.8316 14.0373ZM24.9242 13.4725V12.9789L23.3631 13.074C22.5855 13.1276 22.1456 13.4665 22.1456 14.0017C22.1456 14.5487 22.6036 14.9055 23.3028 14.9055C24.2129 14.9055 24.9242 14.287 24.9242 13.4725Z" fill="black"/>
<path d="M27.3979 18.1168V17.0762C27.4942 17.0999 27.7111 17.0999 27.8197 17.0999C28.4224 17.0999 28.7479 16.8502 28.9467 16.208C28.9467 16.1961 29.0614 15.8275 29.0614 15.8215L26.7711 9.56006H28.1813L29.7847 14.6501H29.8087L31.4121 9.56006H32.7863L30.4114 16.1425C29.8691 17.6589 29.2423 18.1465 27.9283 18.1465C27.8197 18.1465 27.4942 18.1346 27.3979 18.1168Z" fill="black"/>
</g>
<defs>
<clipPath id="clip0_102_1359">
<rect width="38" height="24" fill="white"/>
</clipPath>
</defs>
</svg>
