<svg width="36" height="24" viewBox="0 0 36 24" fill="none" xmlns="http://www.w3.org/2000/svg">
<rect x="0.15" y="0.15" width="35.7" height="23.7" rx="2.25" fill="white"/>
<path d="M19.5234 19.7899C23.7457 19.8103 27.5996 16.3147 27.5996 12.0625C27.5996 7.41281 23.7457 4.19846 19.5234 4.2002H15.8895C11.6168 4.19846 8.09961 7.41368 8.09961 12.0625C8.09961 16.3156 11.6168 19.8103 15.8895 19.7899H19.5234Z" fill="#0079BE"/>
<path d="M15.9068 4.84453C12.0022 4.84583 8.83857 8.03935 8.83727 11.9809C8.83857 15.9221 12.0022 19.1156 15.9068 19.1169C19.812 19.1156 22.9768 15.9221 22.9773 11.9809C22.9768 8.03935 19.8124 4.84583 15.9068 4.84453ZM11.4259 11.9809C11.4251 11.0696 11.6992 10.1792 12.2125 9.42616C12.7257 8.6731 13.4542 8.09239 14.3027 7.75992V16.2015C13.4541 15.8692 12.7256 15.2886 12.2123 14.5356C11.699 13.7826 11.425 12.8922 11.4259 11.9809ZM17.5105 16.2032V7.75948C18.3597 8.09148 19.0888 8.67215 19.6024 9.42546C20.116 10.1788 20.3902 11.0696 20.389 11.9814C20.39 12.8931 20.1158 13.7838 19.6022 14.5371C19.0886 15.2904 18.3596 15.8711 17.5105 16.2032Z" fill="white"/>
<rect x="0.15" y="0.15" width="35.7" height="23.7" rx="2.25" stroke="#CCCCCC" stroke-width="0.3"/>
</svg>
