<svg width="38" height="24" viewBox="0 0 38 24" fill="none" xmlns="http://www.w3.org/2000/svg">
<g clip-path="url(#clip0_102_1385)">
<path opacity="0.07" d="M35 0H3C1.3 0 0 1.3 0 3V21C0 22.7 1.4 24 3 24H35C36.7 24 38 22.7 38 21V3C38 1.3 36.6 0 35 0Z" fill="black"/>
<path d="M35 1C36.1 1 37 1.9 37 3V21C37 22.1 36.1 23 35 23H3C1.9 23 1 22.1 1 21V3C1 1.9 1.9 1 3 1H35Z" fill="white"/>
<path d="M4.983 12.986C4.983 13.334 5.059 13.6 5.159 13.762C5.21203 13.8539 5.28846 13.93 5.38051 13.9827C5.47256 14.0354 5.57694 14.0628 5.683 14.062C5.94 14.062 6.174 13.999 6.626 13.374C6.988 12.874 7.414 12.17 7.702 11.729L8.188 10.982C8.525 10.464 8.916 9.887 9.364 9.496C9.73 9.177 10.124 9 10.522 9C11.189 9 11.824 9.386 12.31 10.111C12.842 10.905 13.1 11.904 13.1 12.936C13.1 13.549 12.98 14 12.774 14.356C12.574 14.701 12.187 15.044 11.536 15.044V14.063C12.094 14.063 12.233 13.55 12.233 12.963C12.233 12.127 12.038 11.199 11.609 10.536C11.304 10.066 10.909 9.779 10.475 9.779C10.005 9.779 9.627 10.133 9.201 10.765C8.975 11.101 8.744 11.51 8.483 11.972L8.196 12.48C7.62 13.5 7.474 13.734 7.186 14.117C6.682 14.789 6.251 15.044 5.684 15.044C5.01 15.044 4.584 14.753 4.321 14.314C4.106 13.956 4 13.486 4 12.95L4.983 12.985V12.986Z" fill="#0081FB"/>
<path d="M4.77539 10.18C5.22539 9.486 5.87539 9 6.62239 9C7.05439 9 7.48339 9.128 7.93239 9.494C8.42239 9.894 8.94539 10.554 9.59739 11.64L9.83139 12.03C10.3964 12.97 10.7174 13.454 10.9054 13.682C11.1474 13.975 11.3164 14.062 11.5364 14.062C12.0944 14.062 12.2334 13.55 12.2334 12.963L13.1004 12.936C13.1004 13.549 12.9804 14 12.7744 14.356C12.5744 14.701 12.1874 15.044 11.5364 15.044C11.1314 15.044 10.7724 14.956 10.3764 14.582C10.0704 14.295 9.71339 13.784 9.43939 13.325L8.62339 11.962C8.21339 11.278 7.83839 10.768 7.62039 10.537C7.38639 10.288 7.08639 9.988 6.60639 9.988C6.21839 9.988 5.88839 10.261 5.61239 10.678L4.77539 10.18Z" fill="url(#paint0_linear_102_1385)"/>
<path d="M6.606 9.988C6.218 9.988 5.888 10.261 5.612 10.678C5.222 11.266 4.983 12.144 4.983 12.986C4.983 13.334 5.059 13.6 5.159 13.762L4.321 14.314C4.106 13.956 4 13.486 4 12.95C4 11.977 4.267 10.963 4.775 10.18C5.225 9.485 5.875 9 6.622 9L6.606 9.988Z" fill="url(#paint1_linear_102_1385)"/>
<path d="M15.01 9.19092H16.148L18.081 12.6889L20.015 9.19092H21.127V14.9379H20.199V10.5329L18.504 13.5829H17.634L15.938 10.5329V14.9379H15.011L15.01 9.19092ZM24.033 11.3339C23.368 11.3339 22.967 11.8339 22.871 12.4539H25.129C25.083 11.8159 24.714 11.3339 24.033 11.3339ZM21.952 12.8079C21.952 11.5029 22.795 10.5539 24.049 10.5539C25.283 10.5539 26.02 11.4909 26.02 12.8769V13.1319H22.872C22.983 13.8059 23.431 14.2609 24.152 14.2609C24.728 14.2609 25.088 14.0849 25.429 13.7639L25.922 14.3669C25.457 14.7939 24.867 15.0409 24.119 15.0409C22.761 15.0409 21.952 14.0509 21.952 12.8079ZM27.145 11.4159H26.291V10.6559H27.145V9.40192H28.04V10.6579H29.337V11.4179H28.04V13.3419C28.04 13.9989 28.25 14.2319 28.766 14.2319C29.002 14.2319 29.137 14.2119 29.336 14.1789V14.9309C29.088 15.0009 28.851 15.0329 28.594 15.0329C27.628 15.0329 27.144 14.5049 27.144 13.4489V11.4169L27.145 11.4159ZM33.105 12.1549C33.0172 11.9175 32.8571 11.7136 32.6471 11.5722C32.4371 11.4308 32.188 11.359 31.935 11.3669C31.169 11.3669 30.679 11.9099 30.679 12.7949C30.679 13.6579 31.13 14.2279 31.899 14.2279C32.502 14.2279 32.933 13.8769 33.105 13.4399V12.1549ZM34 14.9379H33.122V14.3379C32.876 14.6909 32.429 15.0409 31.705 15.0409C30.541 15.0409 29.764 14.0659 29.764 12.7949C29.764 11.5119 30.56 10.5539 31.754 10.5539C32.345 10.5539 32.809 10.7899 33.122 11.2069V10.6569H34V14.9379Z" fill="black"/>
</g>
<defs>
<linearGradient id="paint0_linear_102_1385" x1="5.93039" y1="12.703" x2="12.1964" y2="13.019" gradientUnits="userSpaceOnUse">
<stop stop-color="#0064E1"/>
<stop offset="0.4" stop-color="#0064E1"/>
<stop offset="0.83" stop-color="#0073EE"/>
<stop offset="1" stop-color="#0082FB"/>
</linearGradient>
<linearGradient id="paint1_linear_102_1385" x1="5.424" y1="13.399" x2="5.424" y2="11.089" gradientUnits="userSpaceOnUse">
<stop stop-color="#0082FB"/>
<stop offset="1" stop-color="#0064E0"/>
</linearGradient>
<clipPath id="clip0_102_1385">
<rect width="38" height="24" fill="white"/>
</clipPath>
</defs>
</svg>
