<svg width="38" height="24" viewBox="0 0 38 24" fill="none" xmlns="http://www.w3.org/2000/svg">
<g clip-path="url(#clip0_102_1400)">
<path opacity="0.07" d="M35 0H3C1.3 0 0 1.3 0 3V21C0 22.7 1.4 24 3 24H35C36.7 24 38 22.7 38 21V3C38 1.3 36.6 0 35 0Z" fill="black"/>
<path d="M35 1C36.1 1 37 1.9 37 3V21C37 22.1 36.1 23 35 23H3C1.9 23 1 22.1 1 21V3C1 1.9 1.9 1 3 1H35Z" fill="#5A31F4"/>
<path d="M21.382 9.71305C21.382 11.3811 20.205 12.5711 18.561 12.5711H17.012C16.9864 12.5714 16.9615 12.5792 16.9402 12.5934C16.9189 12.6076 16.9022 12.6276 16.892 12.6511C16.8854 12.6666 16.882 12.6832 16.882 12.7001V14.8921C16.882 14.9091 16.8786 14.9259 16.8721 14.9417C16.8655 14.9574 16.8559 14.9716 16.8439 14.9836C16.8318 14.9956 16.8174 15.0051 16.8017 15.0115C16.7859 15.0179 16.769 15.0212 16.752 15.0211H15.668C15.6335 15.0211 15.6005 15.0074 15.5761 14.983C15.5517 14.9586 15.538 14.9255 15.538 14.8911V6.98605C15.5376 6.9603 15.545 6.93503 15.5593 6.91359C15.5736 6.89216 15.5941 6.87558 15.618 6.86605C15.6338 6.85943 15.6508 6.85603 15.668 6.85605H18.568C20.205 6.85605 21.382 8.04505 21.382 9.71305ZM20.03 9.71305C20.03 8.75505 19.372 8.05505 18.48 8.05505H17.012C16.9949 8.05505 16.978 8.05841 16.9622 8.06495C16.9465 8.07148 16.9321 8.08106 16.9201 8.09313C16.908 8.1052 16.8984 8.11953 16.8919 8.1353C16.8854 8.15108 16.882 8.16798 16.882 8.18505V11.2351C16.8818 11.2522 16.8851 11.2691 16.8916 11.2849C16.8981 11.3007 16.9078 11.3151 16.92 11.3271C16.932 11.3392 16.9464 11.3488 16.9622 11.3553C16.978 11.3618 16.9949 11.3651 17.012 11.3651H18.48C19.372 11.3701 20.03 10.6701 20.03 9.71305ZM21.704 13.5041C21.6926 13.2479 21.7459 12.9929 21.8589 12.7627C21.972 12.5326 22.1412 12.3346 22.351 12.1871C22.774 11.8711 23.435 11.7071 24.406 11.6731L25.439 11.6371V11.3341C25.439 10.7271 25.029 10.4711 24.371 10.4711C23.713 10.4711 23.296 10.7021 23.201 11.0811C23.1929 11.1077 23.1763 11.1309 23.1537 11.1472C23.1311 11.1634 23.1038 11.1718 23.076 11.1711H22.054C22.0259 11.1714 21.9984 11.1626 21.9757 11.1461C21.9529 11.1295 21.9362 11.106 21.928 11.0791C21.9226 11.0612 21.9212 11.0425 21.924 11.0241C22.076 10.1261 22.828 9.44405 24.418 9.44405C26.11 9.44405 26.721 10.2271 26.721 11.7201V14.8921C26.7209 14.9092 26.7173 14.9262 26.7106 14.942C26.7039 14.9577 26.6941 14.972 26.6819 14.984C26.6696 14.996 26.6551 15.0055 26.6391 15.0118C26.6232 15.0182 26.6062 15.0213 26.589 15.0211H25.559C25.5245 15.0211 25.4915 15.0074 25.4671 14.983C25.4427 14.9586 25.429 14.9255 25.429 14.8911V14.6551C25.4293 14.6355 25.4237 14.6163 25.4128 14.6C25.4018 14.5837 25.3862 14.5712 25.368 14.5641C25.3499 14.5569 25.3302 14.5552 25.3112 14.5592C25.2922 14.5631 25.2748 14.5724 25.261 14.5861C24.951 14.9201 24.453 15.1611 23.654 15.1611C22.479 15.1611 21.704 14.5541 21.704 13.5041ZM25.439 12.8171V12.5711L24.1 12.6411C23.395 12.6771 22.985 12.9671 22.985 13.4571C22.985 13.9011 23.361 14.1471 24.019 14.1471C24.912 14.1471 25.439 13.6671 25.439 12.8171ZM27.755 17.4171V16.4981C27.7552 16.4788 27.7598 16.4598 27.7682 16.4425C27.7767 16.4252 27.7889 16.4101 27.804 16.3981C27.8189 16.386 27.8364 16.3773 27.855 16.3726C27.8737 16.3679 27.8931 16.3674 27.912 16.3711C28.07 16.4001 28.23 16.4151 28.391 16.4151C28.6668 16.4302 28.9396 16.3519 29.1655 16.193C29.3913 16.0341 29.5571 15.8037 29.636 15.5391L29.703 15.3281C29.713 15.2996 29.713 15.2685 29.703 15.2401L27.558 9.76905C27.5456 9.73903 27.5448 9.70543 27.5559 9.67489C27.567 9.64435 27.5892 9.61908 27.618 9.60405C27.6371 9.59398 27.6584 9.58883 27.68 9.58905H28.72C28.7467 9.58912 28.7727 9.59728 28.7947 9.61246C28.8167 9.62763 28.8335 9.64911 28.843 9.67405L30.299 13.5331C30.308 13.559 30.3249 13.5814 30.3473 13.5972C30.3698 13.613 30.3966 13.6213 30.424 13.6211C30.4514 13.621 30.478 13.6126 30.5004 13.5968C30.5228 13.5811 30.5397 13.5588 30.549 13.5331L31.814 9.68505C31.8226 9.65852 31.8394 9.63545 31.8621 9.61925C31.8848 9.60304 31.9121 9.59456 31.94 9.59505H33.016C33.0483 9.59524 33.0794 9.60708 33.1037 9.62839C33.1279 9.64971 33.1437 9.67906 33.148 9.71105C33.1504 9.73239 33.1477 9.754 33.14 9.77405L30.845 15.8501C30.317 17.2631 29.412 17.6231 28.415 17.6231C28.2258 17.6283 28.0368 17.606 27.854 17.5571C27.8233 17.5495 27.7964 17.5313 27.7781 17.5056C27.7597 17.4799 27.7522 17.4485 27.755 17.4171ZM8.57 6.40005C7.20549 6.38985 5.88842 6.90016 4.887 7.82705C4.84438 7.86581 4.81779 7.91908 4.81242 7.97643C4.80706 8.03378 4.82331 8.09107 4.858 8.13705L5.476 8.97605C5.49602 9.00434 5.52203 9.02787 5.55218 9.04498C5.58232 9.06208 5.61587 9.07233 5.65043 9.075C5.68498 9.07768 5.7197 9.07271 5.75212 9.06044C5.78454 9.04818 5.81386 9.02893 5.838 9.00405C6.19792 8.64665 6.62537 8.36444 7.09544 8.17387C7.56551 7.9833 8.0688 7.88818 8.576 7.89405C10.696 7.89405 11.803 9.47805 11.803 11.0441C11.803 12.7441 10.64 13.9421 8.968 13.9651C7.676 13.9651 6.702 13.1151 6.702 11.9911C6.7031 11.7068 6.7677 11.4264 6.89106 11.1704C7.01441 10.9143 7.19342 10.6891 7.415 10.5111C7.46217 10.4724 7.49212 10.4166 7.49831 10.3559C7.50449 10.2952 7.4864 10.2345 7.448 10.1871L6.798 9.37205C6.77837 9.34699 6.75388 9.32617 6.726 9.31082C6.69812 9.29547 6.66742 9.28592 6.63575 9.28275C6.60408 9.27957 6.5721 9.28283 6.54172 9.29234C6.51135 9.30184 6.48321 9.31739 6.459 9.33805C6.0609 9.65739 5.73908 10.0615 5.517 10.5211C5.29571 10.9795 5.18053 11.482 5.18 11.9911C5.18 13.9261 6.835 15.4431 8.955 15.4551H8.985C11.502 15.4231 13.322 13.5711 13.322 11.0401C13.322 8.79305 11.655 6.40005 8.57 6.40005Z" fill="white"/>
</g>
<defs>
<clipPath id="clip0_102_1400">
<rect width="38" height="24" fill="white"/>
</clipPath>
</defs>
</svg>
